<svg width="48" height="48" viewBox="0 0 48 48" fill="none" xmlns="http://www.w3.org/2000/svg">
  <defs>
    <linearGradient id="leafGradient" x1="0%" y1="0%" x2="100%" y2="100%">
      <stop offset="0%" style="stop-color:#8FA68E;stop-opacity:1" />
      <stop offset="50%" style="stop-color:#7A9A7E;stop-opacity:1" />
      <stop offset="100%" style="stop-color:#5e7a61;stop-opacity:1" />
    </linearGradient>
    <linearGradient id="stemGradient" x1="0%" y1="0%" x2="100%" y2="100%">
      <stop offset="0%" style="stop-color:#7A9A7E;stop-opacity:1" />
      <stop offset="100%" style="stop-color:#5e7a61;stop-opacity:1" />
    </linearGradient>
  </defs>
  
  <!-- Main leaf shape -->
  <path d="M24 8C24 8 14 12 14 24C14 32 18 36 24 40C30 36 34 32 34 24C34 12 24 8 24 8Z" 
        fill="url(#leafGradient)" 
        opacity="0.9"/>
  
  <!-- Leaf vein -->
  <path d="M24 12L24 36" 
        stroke="url(#stemGradient)" 
        stroke-width="1.5" 
        stroke-linecap="round"
        opacity="0.6"/>
  
  <!-- Side veins -->
  <path d="M24 18L20 22M24 24L20 28M24 18L28 22M24 24L28 28" 
        stroke="url(#stemGradient)" 
        stroke-width="1" 
        stroke-linecap="round"
        opacity="0.4"/>
  
  <!-- Small accent leaf -->
  <path d="M28 38C28 38 32 36 32 32C32 30 31 29 28 28C25 29 24 30 24 32C24 36 28 38 28 38Z" 
        fill="url(#leafGradient)" 
        opacity="0.7"
        transform="rotate(15 28 33)"/>
  
  <!-- Decorative circle -->
  <circle cx="24" cy="24" r="22" 
          stroke="url(#leafGradient)" 
          stroke-width="1" 
          fill="none" 
          opacity="0.3"
          stroke-dasharray="2 4"/>
</svg>